name rise49.25peak52.1432fall72.8391.mot
datacolumns 19
datarows 26
range 16.14993700000000 16.19160700000000
endheader
time	ground_force1_vx	ground_force1_vy	ground_force1_vz	ground_force1_px	ground_force1_py	ground_force1_pz	ground_force2_vx	ground_force2_vy	ground_force2_vz	ground_force2_px	ground_force2_py	ground_force2_pz	ground_torque1_x	ground_torque1_y	ground_torque1_z	ground_torque2_x	ground_torque2_y	ground_torque2_z	
16.14993700000000	-39.77562500000000	815.23909300000003	51.01474800000000	0.11358600000000	0.00000000000000	0.09000800000000	0.00000000000000	0.00000000000000	0.00000000000000	0.00000000000000	0.00000000000000	0.00000000000000	0.00000000000000	18.42161100000000	0.00000000000000	0.00000000000000	0.00000000000000	0.00000000000000	
16.15160200000000	-40.32897200000000	814.31928800000003	50.93304800000000	0.11279800000000	0.00000000000000	0.08994600000000	0.00000000000000	0.00000000000000	0.00000000000000	0.00000000000000	0.00000000000000	0.00000000000000	0.00000000000000	18.36472900000000	0.00000000000000	0.00000000000000	0.00000000000000	0.00000000000000	
16.15326700000000	-40.90268900000000	813.30570499999999	50.83098600000000	0.11201700000000	0.00000000000000	0.08987900000000	0.00000000000000	0.00000000000000	0.00000000000000	0.00000000000000	0.00000000000000	0.00000000000000	0.00000000000000	18.30859800000000	0.00000000000000	0.00000000000000	0.00000000000000	0.00000000000000	
16.15493800000000	-41.49742300000000	812.19607800000006	50.70840600000000	0.11124300000000	0.00000000000000	0.08980600000000	-1.62225300000000	3.85705800000000	1.21742200000000	0.00000000000000	0.00000000000000	0.00000000000000	0.00000000000000	18.25338300000000	0.00000000000000	0.00000000000000	0.34081700000000	0.00000000000000	
16.15660000000000	-42.11375500000000	810.98810000000003	50.56517400000000	0.11047400000000	0.00000000000000	0.08972800000000	-2.61503900000000	7.30534700000000	2.08963800000000	0.00000000000000	0.00000000000000	0.00000000000000	0.00000000000000	18.19924000000000	0.00000000000000	0.00000000000000	0.60268400000000	0.00000000000000	
16.15827100000000	-42.75219000000000	809.67942700000003	50.40118200000000	0.10971100000000	0.00000000000000	0.08964600000000	-3.74264900000000	11.45411300000000	3.10634900000000	0.00000000000000	0.00000000000000	0.00000000000000	0.00000000000000	18.14631600000000	0.00000000000000	0.00000000000000	0.91101100000000	0.00000000000000	
16.15993800000000	-43.41315700000000	808.26766799999996	50.21634600000000	0.10895200000000	0.00000000000000	0.08955800000000	-4.97248000000000	16.25433100000000	4.24578200000000	0.00000000000000	0.00000000000000	0.00000000000000	0.00000000000000	18.09474700000000	0.00000000000000	0.00000000000000	1.26006700000000	0.00000000000000	
16.16160500000000	-44.09699900000000	806.75039500000003	50.01060300000000	0.10819700000000	0.00000000000000	0.08946600000000	-6.26344900000000	21.62548600000000	5.47832200000000	0.00000000000000	0.00000000000000	0.00000000000000	0.00000000000000	18.04465700000000	0.00000000000000	0.00000000000000	1.64172100000000	0.00000000000000	
16.16327300000000	-44.80397100000000	805.12513400000000	49.78391600000000	0.10744400000000	0.00000000000000	0.08936900000000	-7.56871000000000	27.46156400000000	6.76849600000000	0.35506700000000	0.00000000000000	-0.06144500000000	0.00000000000000	17.99615700000000	0.00000000000000	0.00000000000000	3.98420000000000	0.00000000000000	
16.16493700000000	-45.53423300000000	803.38937299999998	49.53627200000000	0.10669200000000	0.00000000000000	0.08926700000000	-8.83910900000000	33.63983900000000	8.07762600000000	0.35868400000000	0.00000000000000	-0.06192900000000	0.00000000000000	17.94934700000000	0.00000000000000	0.00000000000000	4.81169900000000	0.00000000000000	
16.16660300000000	-46.28784500000000	801.54055600000004	49.26768100000000	0.10594100000000	0.00000000000000	0.08916200000000	-10.02692200000000	40.03129400000000	9.36682500000000	0.36187700000000	0.00000000000000	-0.06239100000000	0.00000000000000	17.90431400000000	0.00000000000000	0.00000000000000	5.64181700000000	0.00000000000000	
16.16826800000000	-47.06476400000000	799.57609100000002	48.97817400000000	0.10519000000000	0.00000000000000	0.08905200000000	-11.08936900000000	46.51121100000000	10.59990900000000	0.36470200000000	0.00000000000000	-0.06283700000000	0.00000000000000	17.86113100000000	0.00000000000000	0.00000000000000	6.45224300000000	0.00000000000000	
16.16993400000000	-47.86483900000000	797.49334799999997	48.66781000000000	0.10443800000000	0.00000000000000	0.08893800000000	-11.99145700000000	52.96850700000000	11.74585400000000	0.36720500000000	0.00000000000000	-0.06326800000000	0.00000000000000	17.81985400000000	0.00000000000000	0.00000000000000	7.22332900000000	0.00000000000000	
16.17160000000000	-48.68780500000000	795.28966600000001	48.33666800000000	0.10368400000000	0.00000000000000	0.08882000000000	-12.70787700000000	59.31285300000000	12.78054800000000	0.36942400000000	0.00000000000000	-0.06368700000000	0.00000000000000	17.78052900000000	0.00000000000000	0.00000000000000	7.93926400000000	0.00000000000000	
16.17327500000000	-49.53328300000000	792.96235000000001	47.98485100000000	0.10292700000000	0.00000000000000	0.08869900000000	-13.22384600000000	65.47906900000000	13.68773500000000	0.37139300000000	0.00000000000000	-0.06409600000000	0.00000000000000	17.74318400000000	0.00000000000000	0.00000000000000	8.58875600000000	0.00000000000000	
16.17494000000000	-50.40077300000000	790.50868200000002	47.61248800000000	0.10216700000000	0.00000000000000	0.08857400000000	-13.53496600000000	71.42878100000000	14.45917400000000	0.37313900000000	0.00000000000000	-0.06449700000000	0.00000000000000	17.70783000000000	0.00000000000000	0.00000000000000	9.16524000000000	0.00000000000000	
16.17659900000000	-51.28965500000000	787.92592200000001	47.21972900000000	0.10140300000000	0.00000000000000	0.08844600000000	-13.64625600000000	77.14958200000000	15.09411100000000	0.37468800000000	0.00000000000000	-0.06489000000000	0.00000000000000	17.67446500000000	0.00000000000000	0.00000000000000	9.66666500000000	0.00000000000000	
16.17827300000000	-52.19918300000000	785.21131100000002	46.80674700000000	0.10063400000000	0.00000000000000	0.08831500000000	-13.57056400000000	82.65221000000000	15.59822800000000	0.37606200000000	0.00000000000000	-0.06527600000000	0.00000000000000	17.64307000000000	0.00000000000000	0.00000000000000	10.09493700000000	0.00000000000000	
16.17993300000000	-53.12848400000000	782.36208299999998	46.37374100000000	0.09986000000000	0.00000000000000	0.08818100000000	-13.32660800000000	87.96629200000000	15.98224100000000	0.37727800000000	0.00000000000000	-0.06565700000000	0.00000000000000	17.61360700000000	0.00000000000000	0.00000000000000	10.45513200000000	0.00000000000000	
16.18160100000000	-54.07655800000000	779.37546499999996	45.92093300000000	0.09908000000000	0.00000000000000	0.08804400000000	-12.93686500000000	93.13527499999999	16.26032800000000	0.37835400000000	0.00000000000000	-0.06603300000000	0.00000000000000	17.58602500000000	0.00000000000000	0.00000000000000	10.75459100000000	0.00000000000000	
16.18327000000000	-55.04227500000000	776.24869000000001	45.44856800000000	0.09829400000000	0.00000000000000	0.08790400000000	-12.42551300000000	98.21109199999999	16.44854400000000	0.37930500000000	0.00000000000000	-0.06640400000000	0.00000000000000	17.56025200000000	0.00000000000000	0.00000000000000	11.00197600000000	0.00000000000000	
16.18493300000000	-56.02437500000000	772.97899800000005	44.95691400000000	0.09750000000000	0.00000000000000	0.08776100000000	-11.81657500000000	103.24905000000000	16.56335800000000	0.38014300000000	0.00000000000000	-0.06677100000000	0.00000000000000	17.53620200000000	0.00000000000000	0.00000000000000	11.20639700000000	0.00000000000000	
16.18660800000000	-57.02147000000000	769.56364799999994	44.44626500000000	0.09670000000000	0.00000000000000	0.08761700000000	-11.13239100000000	108.30331200000001	16.62039900000000	0.38088100000000	0.00000000000000	-0.06713400000000	0.00000000000000	17.51377000000000	0.00000000000000	0.00000000000000	11.37664600000000	0.00000000000000	
16.18827300000000	-58.03204200000000	765.99992699999996	43.91693800000000	0.09589200000000	0.00000000000000	0.08746900000000	-10.39247300000000	113.42321099999999	16.63348800000000	0.38152900000000	0.00000000000000	-0.06749300000000	0.00000000000000	17.49283300000000	0.00000000000000	0.00000000000000	11.52059500000000	0.00000000000000	
16.18994000000000	-59.05444500000000	762.28515400000003	43.36927200000000	0.09507600000000	0.00000000000000	0.08732000000000	-9.61275900000000	118.65055700000001	16.61396700000000	0.38209600000000	0.00000000000000	-0.06784800000000	0.00000000000000	17.47325400000000	0.00000000000000	0.00000000000000	11.64476600000000	0.00000000000000	
16.19160700000000	-60.08690700000000	758.41669700000000	42.80363400000000	0.09425200000000	0.00000000000000	0.08716900000000	-8.80527100000000	124.01794400000000	16.57033500000000	0.38259000000000	0.00000000000000	-0.06820100000000	0.00000000000000	17.45487500000000	0.00000000000000	0.00000000000000	11.75408900000000	0.00000000000000	
